<?xml version="1.0" standalone="no"?>
<!DOCTYPE svg PUBLIC "-//W3C//DTD SVG 20010904//EN"
 "http://www.w3.org/TR/2001/REC-SVG-20010904/DTD/svg10.dtd">
<svg version="1.0" xmlns="http://www.w3.org/2000/svg"
 width="600.000000pt" height="600.000000pt" viewBox="0 0 600.000000 600.000000"
 preserveAspectRatio="xMidYMid meet">

<g transform="translate(0.000000,600.000000) scale(0.100000,-0.100000)"
fill="#000000" stroke="none">
<path d="M2725 5989 c-595 -61 -1150 -286 -1610 -654 -118 -94 -346 -319 -432
-425 -369 -459 -581 -951 -665 -1550 -8 -61 -13 -191 -12 -365 0 -223 4 -294
21 -405 59 -380 176 -732 344 -1037 72 -131 197 -317 294 -438 94 -118 319
-346 425 -432 459 -369 951 -581 1550 -665 61 -8 191 -13 365 -12 223 0 294 4
405 21 380 59 732 176 1037 344 131 72 317 197 438 294 118 94 346 319 432
425 363 451 573 932 660 1515 27 182 25 620 -4 805 -75 477 -228 878 -478
1255 -115 173 -220 300 -375 456 -241 242 -476 412 -776 562 -296 148 -574
235 -919 288 -150 24 -550 34 -700 18z m190 -1009 c3 -11 -1 -43 -11 -73 l-16
-53 32 -54 c18 -30 44 -65 57 -78 12 -13 23 -30 23 -38 0 -8 8 -31 19 -52 10
-20 28 -73 39 -117 31 -125 93 -314 106 -328 21 -21 35 -52 81 -180 23 -67 69
-178 101 -247 l57 -126 76 40 c98 51 171 105 248 183 34 35 69 63 78 63 8 0
15 6 16 13 0 6 28 35 62 62 34 28 188 175 343 328 154 152 288 277 297 277 11
0 26 -20 42 -56 22 -49 25 -72 26 -168 0 -61 4 -131 8 -156 19 -102 43 -250
86 -525 26 -159 62 -384 81 -500 56 -329 62 -379 73 -555 14 -224 26 -979 17
-1062 -8 -67 -8 -68 -44 -78 -20 -5 -106 -10 -190 -10 -143 0 -154 1 -159 19
-6 23 -28 26 -313 42 -113 6 -428 36 -700 67 l-495 56 -650 4 c-621 3 -655 2
-771 -17 -147 -25 -141 -25 -149 -2 -4 13 16 63 59 148 36 70 96 196 134 278
63 137 325 682 532 1110 45 94 88 184 96 202 l13 31 -154 135 c-84 75 -216
187 -292 251 -91 76 -184 167 -274 268 -147 165 -208 228 -220 228 -3 0 -9
-10 -12 -21 -4 -16 -11 -20 -26 -16 -19 5 -19 -3 -23 -282 -2 -160 -16 -460
-31 -681 -32 -468 -49 -880 -54 -1267 l-4 -283 49 0 c61 0 162 -51 162 -81 0
-32 -28 -33 -79 -5 -36 19 -63 26 -103 26 -97 0 -91 -39 -85 552 4 343 11 572
21 693 46 520 59 748 65 1125 5 361 7 395 23 398 28 5 121 -71 214 -175 47
-54 139 -147 203 -207 64 -60 182 -173 262 -250 154 -149 372 -346 383 -346 9
0 57 104 282 604 143 318 197 449 239 584 35 112 52 184 49 199 -5 18 -1 28
15 39 11 8 21 24 21 34 0 22 25 50 45 50 8 0 16 -9 20 -20z m-1395 -1270 c-9
-17 -30 -28 -30 -16 0 16 15 36 26 36 12 0 12 -4 4 -20z"/>
<path d="M2857 4753 c-2 -5 -21 -64 -42 -133 -34 -111 -308 -743 -469 -1080
-24 -52 -42 -98 -40 -102 3 -4 95 -8 205 -8 121 0 198 4 194 9 -6 10 6 15 64
26 l35 7 -34 18 -35 18 46 7 c30 4 55 3 69 -5 25 -13 55 -6 44 11 -4 7 -3 9 3
6 5 -3 29 0 54 7 24 7 55 10 69 6 14 -4 30 -4 35 1 41 30 192 109 205 107 8
-2 16 -12 18 -24 2 -14 -8 -26 -35 -41 -21 -12 -76 -46 -121 -77 -46 -30 -93
-58 -104 -62 -13 -4 -17 -9 -9 -13 6 -4 -38 -20 -99 -35 -107 -26 -118 -27
-377 -26 l-266 2 -179 -374 c-99 -205 -239 -497 -313 -648 -73 -151 -149 -313
-170 -360 -20 -47 -59 -127 -86 -179 -28 -51 -49 -95 -47 -96 2 -2 37 3 78 10
41 8 103 14 138 14 48 1 62 4 62 16 0 17 41 30 70 22 11 -3 18 -1 14 4 -3 5
-13 9 -24 9 -10 0 -21 7 -24 16 -4 11 -1 14 12 10 9 -3 31 -8 47 -11 l30 -6
-35 20 c-38 22 -30 24 43 12 34 -6 52 -4 65 5 14 11 15 13 2 14 -9 0 -33 17
-54 38 l-37 39 33 -2 c19 -1 43 -7 54 -13 15 -8 24 -8 31 -1 8 8 79 -5 234
-41 123 -28 228 -55 233 -60 15 -15 -2 -40 -26 -39 -13 0 -45 7 -73 14 -43 11
-46 13 -20 15 28 2 28 3 -10 11 -22 5 -51 11 -64 15 -21 4 -23 3 -12 -10 9
-11 10 -20 2 -35 -10 -19 -7 -20 72 -25 45 -3 222 -10 392 -15 202 -6 368 -16
475 -29 91 -12 194 -23 230 -26 244 -22 290 -26 330 -32 25 -4 95 -10 155 -15
61 -5 187 -15 280 -24 94 -8 189 -14 213 -13 l42 3 -79 142 c-44 78 -147 249
-229 380 -136 219 -341 585 -595 1068 -55 105 -110 206 -123 226 -12 20 -47
85 -77 145 -36 72 -63 112 -78 119 -23 10 -289 408 -289 432 0 6 6 13 13 16 8
3 7 10 -7 26 -11 11 -14 21 -8 21 12 0 61 -61 88 -110 32 -61 146 -241 150
-237 2 2 -13 46 -32 98 -19 51 -58 175 -85 274 -27 99 -72 232 -99 295 -28 63
-50 125 -50 137 0 18 -56 123 -66 123 -2 0 -5 -3 -7 -7z m114 -515 c75 -97 60
-91 -40 14 -44 47 -67 78 -59 81 18 6 28 -3 99 -95z m-291 -403 c-24 -25 -52
-45 -61 -45 -24 0 -31 26 -11 43 20 18 105 56 111 51 3 -3 -15 -25 -39 -49z
m-170 -125 c-11 -16 -26 -33 -32 -36 -7 -4 1 9 16 29 34 44 46 50 16 7z m-432
-1533 c3 -22 0 -26 -14 -20 -14 5 -13 2 4 -15 13 -13 22 -35 22 -52 0 -36 -6
-37 -37 -8 -23 22 -33 88 -13 88 6 0 9 3 9 8 -3 20 2 33 14 30 6 -3 13 -17 15
-31z m272 -149 c0 -12 -14 -10 -28 4 -19 19 -14 29 8 16 11 -7 20 -16 20 -20z
m-262 10 c-7 -19 -35 -21 -41 -3 -5 11 0 15 19 15 16 0 24 -5 22 -12z m177
-78 c22 -22 34 -40 29 -40 -36 0 -106 36 -144 75 l-44 45 60 -20 c41 -14 73
-34 99 -60z m199 -45 c20 -8 36 -17 36 -20 0 -12 -37 -3 -60 15 -30 24 -24 25
24 5z m1518 -90 c-11 -13 -22 -21 -26 -18 -14 14 -5 66 17 94 l22 31 3 -41 c2
-29 -3 -49 -16 -66z m303 -6 c9 -13 -3 -79 -14 -79 -4 0 -13 17 -19 37 -9 29
-9 39 1 45 16 11 25 10 32 -3z m-365 -73 c0 -9 -30 -14 -35 -6 -4 6 3 10 14
10 12 0 21 -2 21 -4z m310 -37 c0 -6 7 -8 16 -5 12 5 14 1 8 -17 -7 -24 -24
-38 -39 -34 -12 4 -19 33 -11 53 6 17 26 19 26 3z m77 5 c-3 -3 -12 -4 -19 -1
-8 3 -5 6 6 6 11 1 17 -2 13 -5z"/>
<path d="M4219 4223 c-157 -159 -295 -302 -306 -318 -28 -40 -317 -243 -408
-286 -39 -19 -71 -35 -73 -35 -2 -1 4 -16 13 -34 9 -17 14 -39 11 -47 -9 -22
382 -774 552 -1065 27 -45 51 -88 53 -93 2 -6 63 -105 135 -220 133 -213 324
-546 324 -565 0 -6 50 -10 134 -10 l134 0 7 62 c10 82 -5 740 -16 754 -9 12
-23 138 -34 324 -3 52 -10 129 -14 170 -5 41 -7 98 -6 125 2 47 -17 172 -144
965 -37 227 -51 343 -51 415 0 100 -6 145 -19 145 -4 0 -135 -129 -292 -287z
m69 -475 c36 -36 -7 -57 -51 -26 l-32 23 30 6 c17 4 32 7 36 8 3 0 10 -4 17
-11z"/>
<path d="M1220 4351 c0 -25 3 -28 26 -23 l25 5 -22 23 c-28 30 -29 30 -29 -5z"/>
<path d="M1996 1845 c4 -8 1 -15 -5 -15 -6 0 -11 -4 -11 -9 0 -8 80 -22 89
-15 2 2 -7 8 -20 13 -18 7 -4 9 51 6 l75 -5 -75 20 c-93 24 -111 25 -104 5z"/>
</g>
</svg>
